<?xml version="1.0" encoding="UTF-8"?>
<svg version="1.1" xmlns="http://www.w3.org/2000/svg" width="1920" height="1080">
<path d="M0 0 C1.30302222 -0.0026804 2.60604444 -0.00536081 3.94855218 -0.00812243 C7.57194454 -0.01528924 11.19522823 -0.00999605 14.81861639 -0.00269845 C18.77278906 0.00304922 22.72694738 -0.00284278 26.68111941 -0.00724217 C33.64021815 -0.01337477 40.59928487 -0.01204286 47.55838313 -0.00589748 C57.97649592 0.003264 68.39458428 0.00089498 78.81269893 -0.0037467 C96.56707102 -0.01131922 114.32143083 -0.00938502 132.07580262 -0.00232154 C150.07343247 0.00480255 168.07105514 0.00758465 186.06868631 0.00503892 C187.20453932 0.00488105 188.34039234 0.00472319 189.51066515 0.00456054 C195.30220825 0.00373655 201.09375133 0.00284368 206.88529442 0.00192816 C248.83121173 -0.00454714 290.77712373 -0.00118706 332.7230404 0.00752228 C374.27850281 0.01613509 415.83396271 0.02105415 457.38942605 0.02085465 C459.99721783 0.02084673 462.60500961 0.02083901 465.21280138 0.02083148 C475.69199453 0.02079411 486.17118768 0.02072769 496.65038083 0.02062567 C525.94614579 0.02034802 555.24191073 0.02073473 584.53767568 0.02161473 C585.20462932 0.0216345 585.87158295 0.02165426 586.55874731 0.02167462 C629.75886637 0.0229635 672.95898461 0.02711221 716.15910321 0.03347272 C716.848856 0.03357412 717.53860878 0.03367553 718.24926316 0.03378001 C740.65048511 0.03707648 763.05170703 0.04056291 785.45292894 0.04406675 C807.28212026 0.04748087 829.11131158 0.05082501 850.94050294 0.05392998 C851.63912156 0.05402939 852.33774018 0.0541288 853.05752906 0.05423122 C919.38318208 0.06364228 985.70883458 0.06477541 1052.03448817 0.06426106 C1055.54505289 0.06423418 1059.05561761 0.06420929 1062.56618233 0.06418429 C1066.77453325 0.06415418 1070.98288416 0.06412393 1075.19123508 0.06409302 C1089.86757254 0.06398524 1104.54391 0.06388603 1119.22024746 0.06380389 C1121.30926143 0.06379193 1123.39827541 0.06377918 1125.48728939 0.06376626 C1167.96387801 0.0635082 1210.44046641 0.06453022 1252.91705495 0.06710118 C1253.58382184 0.06714148 1254.25058872 0.06718177 1254.93756066 0.06722329 C1286.18975113 0.06911801 1317.44194156 0.07145941 1348.69413197 0.07411849 C1349.99290424 0.07422867 1351.29167651 0.07433884 1352.62980552 0.07445235 C1376.30593541 0.07646116 1376.30593541 0.07646116 1387.88668838 0.07747694 C1416.46407601 0.07997339 1445.0414635 0.08191384 1473.61885124 0.08229059 C1475.55141544 0.08231688 1475.55141544 0.08231688 1477.52302134 0.08234371 C1482.71560821 0.08241291 1487.90819507 0.08247817 1493.10078193 0.08254119 C1541.25733128 0.08312696 1589.4138783 0.08688794 1637.57042667 0.09701989 C1642.18461934 0.09797749 1646.79881202 0.09892082 1651.4130047 0.09985322 C1652.54542764 0.10008375 1653.67785058 0.10031428 1654.84458937 0.1005518 C1672.79359899 0.10411938 1690.74260704 0.10435306 1708.69161692 0.10321739 C1726.33033611 0.10217459 1743.96905177 0.10470457 1761.60776988 0.11106751 C1771.95538143 0.11469572 1782.30298457 0.11559562 1792.65059634 0.11248951 C1799.51929777 0.11070097 1806.38799207 0.11252422 1813.25669206 0.11730729 C1817.15259882 0.11991929 1821.04848839 0.12098406 1824.94439495 0.11760842 C1829.13359478 0.11401382 1833.32275198 0.11816627 1837.51195049 0.12304783 C1839.30488194 0.11963892 1839.30488194 0.11963892 1841.13403422 0.11616114 C1860.74792166 0.16079072 1860.74792166 0.16079072 1868.06934816 2.24954766 C1868.06934816 2.90954766 1868.06934816 3.56954766 1868.06934816 4.24954766 C1868.81184816 4.31142266 1869.55434816 4.37329766 1870.31934816 4.43704766 C1873.93000545 5.50383277 1874.91394152 7.23197836 1877.06934816 10.24954766 C1877.58497316 10.74454766 1878.10059816 11.23954766 1878.63184816 11.74954766 C1883.92038751 17.26802351 1884.19417672 23.1157254 1884.19584799 30.42906213 C1884.19737454 31.14574979 1884.19890108 31.86243746 1884.20047389 32.60084294 C1884.20438516 35.01360656 1884.20115323 37.42630796 1884.19798261 39.83907193 C1884.19932868 41.589332 1884.20111225 43.33959177 1884.20329484 45.08985099 C1884.20804076 49.9262898 1884.20651805 54.76270986 1884.20401707 59.5991496 C1884.20238882 64.8507964 1884.2065208 70.1024391 1884.20992625 75.35408461 C1884.2150895 84.56734882 1884.21649585 93.78060778 1884.21547014 102.9938733 C1884.21394856 116.69440005 1884.21809953 130.39492096 1884.22334476 144.09544658 C1884.23302972 169.98636503 1884.23583006 195.87728057 1884.23640182 221.76820046 C1884.23646657 224.62501973 1884.2365345 227.481839 1884.23660523 230.33865827 C1884.23662223 231.04757164 1884.23663924 231.756485 1884.23665676 232.48688059 C1884.23706506 248.19034417 1884.23925451 263.89380734 1884.24176107 279.59727071 C1884.24278942 286.06175552 1884.24377945 292.52624034 1884.24477732 298.99072516 C1884.24494321 300.06211039 1884.24494321 300.06211039 1884.24511244 301.15513977 C1884.25143769 342.09298391 1884.25556144 383.0308278 1884.25510389 423.96867245 C1884.25508811 425.50109575 1884.25507237 427.03351905 1884.25505668 428.56594235 C1884.25498329 435.48482856 1884.25489512 442.40371478 1884.25480279 449.32260099 C1884.25476167 452.40795504 1884.25472152 455.49330908 1884.25468148 458.57866312 C1884.25466108 460.12293984 1884.25464006 461.66721657 1884.25461842 463.21149329 C1884.25393824 512.0382274 1884.26125381 560.86495426 1884.2751587 609.69168633 C1884.2786597 621.99206352 1884.28212915 634.29244072 1884.2854231 646.59281796 C1884.28572741 647.72887754 1884.28572741 647.72887754 1884.28603787 648.88788782 C1884.29225273 672.23033911 1884.29601841 695.57278981 1884.29728109 718.9152419 C1884.29732104 719.64809587 1884.29736099 720.38094985 1884.29740215 721.13601152 C1884.29825542 737.22393339 1884.29851662 753.31185523 1884.29823177 769.39977712 C1884.29813529 775.15638797 1884.29808324 780.91299882 1884.29805304 786.66960968 C1884.29804513 788.10172463 1884.29803492 789.53383958 1884.29802242 790.96595453 C1884.29784608 813.78734527 1884.30354475 836.60872981 1884.31217624 859.43011878 C1884.32106673 883.05646053 1884.32264931 906.68278975 1884.31586411 930.30913312 C1884.3121627 943.93285271 1884.3140184 957.55654512 1884.32380645 971.18026184 C1884.3297906 980.27659009 1884.32852845 989.37289857 1884.32133595 998.4692259 C1884.31744117 1003.65471868 1884.3167169 1008.8401587 1884.3247933 1014.02564783 C1884.33207921 1018.74486219 1884.33012726 1023.46397992 1884.32086943 1028.18319001 C1884.31915083 1029.87805049 1884.32076763 1031.57291856 1884.32617064 1033.26777131 C1884.35343957 1042.43721684 1883.99121031 1051.23615613 1882.06934816 1060.24954766 C1881.40934816 1060.24954766 1880.74934816 1060.24954766 1880.06934816 1060.24954766 C1879.98298097 1060.85282891 1879.89661378 1061.45611016 1879.80762941 1062.07767266 C1878.64263929 1068.70422195 1878.64263929 1068.70422195 1875.50684816 1071.68704766 C1874.70247316 1072.20267266 1873.89809816 1072.71829766 1873.06934816 1073.24954766 C1872.73934816 1073.90954766 1872.40934816 1074.56954766 1872.06934816 1075.24954766 C1869.50684816 1075.87454766 1869.50684816 1075.87454766 1867.06934816 1076.24954766 C1867.06934816 1076.90954766 1867.06934816 1077.56954766 1867.06934816 1078.24954766 C1860.48906624 1080.64934493 1854.20299542 1080.52769055 1847.25418144 1080.50024599 C1845.30015091 1080.50445294 1845.30015091 1080.50445294 1843.30664502 1080.50874488 C1839.67952867 1080.51626621 1836.05251942 1080.51130774 1832.42540586 1080.50436498 C1828.4689266 1080.49900252 1824.51246286 1080.50526277 1820.55598521 1080.51003867 C1813.59127461 1080.5168339 1806.62659528 1080.51615615 1799.66188398 1080.51067159 C1789.23538239 1080.50249794 1778.80890624 1080.50583211 1768.38240408 1080.51143687 C1750.61420167 1080.52064804 1732.84601069 1080.52033143 1715.07780725 1080.51487511 C1697.06524563 1080.50937741 1679.05269155 1080.50820806 1661.04012948 1080.51234978 C1659.90349426 1080.51260813 1658.76685903 1080.51286647 1657.59578031 1080.51313265 C1652.96662501 1080.51419916 1648.33746971 1080.51529657 1643.70831443 1080.5164332 C1600.56389469 1080.5270193 1557.41948 1080.52772596 1514.27505952 1080.5221383 C1512.99586752 1080.52197271 1511.71667552 1080.52180712 1510.39872013 1080.52163651 C1508.47687365 1080.52138772 1508.47687365 1080.52138772 1506.51620199 1080.5211339 C1467.51549687 1080.51609173 1428.51479383 1080.5147828 1389.51408845 1080.51717919 C1386.90453371 1080.51733415 1384.29497897 1080.51748846 1381.68542423 1080.51764213 C1371.19921033 1080.51826304 1360.71299644 1080.51890037 1350.22678255 1080.51956166 C1320.91132048 1080.52139588 1291.5958584 1080.52254022 1262.28039628 1080.52313393 C1261.27928814 1080.52315454 1261.27928814 1080.52315454 1260.25795558 1080.52317556 C1217.02761963 1080.5240532 1173.79728443 1080.52185076 1130.56694871 1080.51743478 C1129.53157078 1080.51732942 1129.53157078 1080.51732942 1128.47527612 1080.51722194 C1105.35461023 1080.51486918 1082.23394435 1080.51235707 1059.11327848 1080.50982868 C989.19970929 1080.50218836 919.28614279 1080.49799977 794.43716707 1080.51005934 C771.32728533 1080.51258574 748.21740359 1080.51508275 725.10752183 1080.51743478 C724.07264712 1080.51754051 724.07264712 1080.51754051 723.01686586 1080.51764838 C679.813068 1080.52205878 636.60927066 1080.52402314 593.40547258 1080.52313393 C592.40465453 1080.52311367 592.40465453 1080.52311367 591.38361794 1080.52309299 C561.42482446 1080.52247955 531.46603104 1080.52120196 501.50723762 1080.51931293 C491.02902156 1080.51865462 480.55080551 1080.51802846 470.07258945 1080.51741151 C467.46578755 1080.51725673 464.85898565 1080.51709927 462.25218375 1080.51693911 C423.26283958 1080.51455034 384.27349776 1080.51658791 345.28415388 1080.52163651 C343.36586265 1080.52188489 343.36586265 1080.52188489 341.40881807 1080.5221383 C340.13230761 1080.52230366 338.85579716 1080.52246903 337.54060456 1080.5226394 C294.51860417 1080.5281517 251.49660983 1080.52613511 208.4746103 1080.51557681 C203.85779723 1080.51447206 199.24098416 1080.51339866 194.62417108 1080.51234978 C192.9245642 1080.51195916 192.9245642 1080.51195916 191.19062183 1080.51156065 C173.22568591 1080.50761086 155.26075752 1080.51036768 137.29582228 1080.5158878 C119.64479921 1080.52116935 101.99378887 1080.51933772 84.34276743 1080.50985962 C73.98568948 1080.50451074 63.62864638 1080.50465397 53.27157007 1080.51282281 C46.39913605 1080.51769878 39.52672925 1080.5153649 32.65429853 1080.50708911 C28.7546152 1080.50259654 24.85500142 1080.50122897 20.95532113 1080.50872214 C16.76546105 1080.51670354 12.57576951 1080.50922791 8.38591152 1080.50024599 C7.18482875 1080.50502747 5.98374598 1080.50980896 4.74626676 1080.51473533 C-2.35491955 1080.48363942 -8.99425957 1079.78380954 -15.93065184 1078.24954766 C-15.93065184 1077.58954766 -15.93065184 1076.92954766 -15.93065184 1076.24954766 C-17.91065184 1075.91954766 -19.89065184 1075.58954766 -21.93065184 1075.24954766 C-21.93065184 1074.58954766 -21.93065184 1073.92954766 -21.93065184 1073.24954766 C-22.52362059 1073.1554461 -23.11658934 1073.06134454 -23.72752684 1072.96439141 C-26.42207826 1072.09009547 -27.39387941 1070.98234448 -29.18065184 1068.81204766 C-29.96182372 1067.88585625 -29.96182372 1067.88585625 -30.75877684 1066.94095391 C-31.93065184 1065.24954766 -31.93065184 1065.24954766 -31.93065184 1063.24954766 C-32.59065184 1063.24954766 -33.25065184 1063.24954766 -33.93065184 1063.24954766 C-35.54423903 1058.27365657 -36.18078921 1054.09945953 -36.18135017 1048.81637484 C-36.18415481 1048.0965608 -36.18695944 1047.37674677 -36.18984906 1046.63512019 C-36.19680717 1044.22369451 -36.18953632 1041.81252556 -36.18233413 1039.40110368 C-36.18442064 1037.64710897 -36.18738332 1035.89311512 -36.19114286 1034.1391232 C-36.19895304 1029.30161371 -36.19425944 1024.46418372 -36.18758695 1019.62667548 C-36.18252599 1014.37039635 -36.18902846 1009.11412966 -36.19407362 1003.85785228 C-36.20130882 994.63952538 -36.2010706 985.4212219 -36.1959793 976.20289391 C-36.18842881 962.49482235 -36.19227432 948.78677062 -36.19839591 935.07869921 C-36.20832925 912.01771854 -36.20868122 888.95675002 -36.20324248 865.89576882 C-36.20307689 865.19330531 -36.2029113 864.49084179 -36.20274069 863.7670915 C-36.20257483 863.06350317 -36.20240897 862.35991485 -36.20223809 861.63500566 C-36.19719358 840.20762557 -36.19588806 818.78024929 -36.19828337 797.35286874 C-36.19843833 795.91850106 -36.19859265 794.48413339 -36.19874631 793.04976571 C-36.19936724 787.28570309 -36.20000457 781.52164047 -36.20066584 775.75757785 C-36.20249999 759.64362198 -36.2036411 743.52966611 -36.20423812 727.41571015 C-36.20426541 726.68187117 -36.2042927 725.9480322 -36.20432082 725.19195568 C-36.20513955 701.80357682 -36.20288476 678.41519928 -36.19853896 655.02682084 C-36.19839846 654.26809453 -36.19825796 653.50936822 -36.19811321 652.7276502 C-36.19582327 640.40616665 -36.19338436 628.08468312 -36.19093286 615.7631996 C-36.18122309 566.90887315 -36.1816681 518.05455766 -36.19139403 469.20023125 C-36.19383642 456.89213279 -36.19625853 444.58403432 -36.19853896 432.27593583 C-36.19867986 431.5180784 -36.19882075 430.76022098 -36.19896592 429.97939818 C-36.20327882 406.62097994 -36.20510672 383.26256261 -36.20423812 359.90414399 C-36.20421095 359.17076185 -36.20418378 358.43737972 -36.20415579 357.68177388 C-36.2035308 341.58208365 -36.20226347 325.48239351 -36.20041711 309.38270336 C-36.19975883 303.62187628 -36.19913267 297.8610492 -36.19851569 292.10022212 C-36.19836091 290.6670715 -36.19820345 289.23392088 -36.1980433 287.80077026 C-36.1956565 266.38326868 -36.1976883 244.9657714 -36.20274069 223.54827036 C-36.20290628 222.84630362 -36.20307187 222.14433687 -36.20324248 221.42109841 C-36.20340785 220.72042606 -36.20357321 220.0197537 -36.20374359 219.29784885 C-36.20926176 195.65798349 -36.20722368 172.01813198 -36.19668099 148.37826739 C-36.190803 134.74808356 -36.19043287 121.11792586 -36.19797334 107.48774269 C-36.20245366 98.38589821 -36.19967499 89.28407472 -36.1909638 80.18223335 C-36.18620106 74.99444702 -36.1845904 69.80671266 -36.19177577 64.61892794 C-36.19824994 59.89648429 -36.19547193 55.17413859 -36.18541445 50.45170204 C-36.1834054 48.75679975 -36.18471841 47.0618893 -36.18982632 45.36699352 C-36.26376143 18.95292817 -36.26376143 18.95292817 -30.93065184 11.24954766 C-28.43065184 9.06204766 -28.43065184 9.06204766 -25.93065184 7.24954766 C-25.09533934 6.38329766 -25.09533934 6.38329766 -24.24315184 5.49954766 C-22.93065184 4.24954766 -22.93065184 4.24954766 -20.93065184 4.24954766 C-20.93065184 3.58954766 -20.93065184 2.92954766 -20.93065184 2.24954766 C-13.89469229 0.07956606 -7.32995321 -0.0297488 0 0 Z M22.06934816 59.24954766 C20.64972678 62.0887904 20.94417894 64.46930015 20.94399899 67.64593005 C20.94259668 68.3143178 20.94119436 68.98270554 20.93974955 69.67134746 C20.93623715 71.937557 20.93992294 74.20369975 20.94350702 76.46990842 C20.942465 78.10744254 20.94098458 79.74497643 20.93910265 81.3825098 C20.93517989 85.9198731 20.9375535 90.45721534 20.9408806 94.99457833 C20.94340258 99.91664254 20.94016327 104.83870336 20.93763727 109.7607671 C20.93401346 118.39968687 20.93414256 127.03860039 20.93668443 135.67752045 C20.94045396 148.52346501 20.93853995 161.36940426 20.93547612 174.21534878 C20.93019944 197.15275662 20.93067111 220.09016168 20.93355503 243.02756979 C20.93607543 263.09934953 20.93673091 283.17112828 20.93553239 303.24290818 C20.93545491 304.58555864 20.93537776 305.9282091 20.93530092 307.27085957 C20.93499047 312.66602816 20.93467181 318.06119676 20.93434116 323.45636536 C20.93342403 338.53920243 20.93285352 353.6220395 20.93255502 368.7048766 C20.93254137 369.39178325 20.93252773 370.07868989 20.93251367 370.78641189 C20.93210423 392.68301406 20.93323213 414.57961587 20.9354046 436.47621793 C20.93547485 437.18669686 20.9355451 437.8971758 20.93561747 438.6291844 C20.93676251 450.16785072 20.93798193 461.70651703 20.93920765 473.24518334 C20.94406448 519.0151124 20.94383855 564.78503854 20.93897706 610.55496758 C20.93775594 622.0889187 20.93654491 633.62286982 20.9354046 645.15682095 C20.93533415 645.86694691 20.9352637 646.57707287 20.93519112 647.3087178 C20.93303594 669.18281586 20.93212047 691.05691369 20.93255502 712.93101186 C20.9325686 713.61740445 20.93258219 714.30379705 20.93259618 715.01098943 C20.93290862 730.07628519 20.93354218 745.14158092 20.93446552 760.20687666 C20.93479468 765.59698752 20.93510776 770.98709838 20.93541623 776.37720924 C20.93549362 777.71820514 20.93557235 779.05920104 20.93565243 780.40019694 C20.93688713 801.13415115 20.9356594 821.86810408 20.93305284 842.60205811 C20.9302005 865.40534077 20.93089359 888.20862021 20.93633358 911.01190246 C20.93928083 923.78919017 20.93944583 936.5664709 20.93568741 949.34375843 C20.93345717 957.86194545 20.9348184 966.38012684 20.93919218 974.89831302 C20.94158746 979.76266177 20.94235045 984.62699659 20.93878619 989.49134494 C20.93558395 993.90630813 20.93688712 998.32124491 20.94196685 1002.73620613 C20.94298378 1004.33327993 20.94228275 1005.93035585 20.93976092 1007.52742798 C20.93660323 1009.67782313 20.93947786 1011.82812384 20.94399899 1013.97851443 C20.94406675 1015.17459432 20.94413451 1016.37067421 20.94420432 1017.60299895 C20.7682338 1020.1727396 20.7682338 1020.1727396 22.06934816 1021.24954766 C23.69128852 1021.34726858 25.31751666 1021.37433136 26.94239816 1021.37421883 C28.0071591 1021.37657172 29.07192004 1021.37892462 30.16894647 1021.38134882 C31.35638976 1021.37883994 32.54383305 1021.37633106 33.76725948 1021.37374616 C35.02197888 1021.37502424 36.27669829 1021.37630233 37.56943949 1021.37761915 C41.08977052 1021.38105958 44.61007366 1021.37818863 48.1304033 1021.37438511 C51.96031632 1021.37134067 55.79022576 1021.37407452 59.62013885 1021.37609199 C66.37099229 1021.3788376 73.12183731 1021.37782316 79.87269033 1021.37443084 C89.97897352 1021.36937222 100.08525066 1021.37005405 110.19153466 1021.37189742 C127.41141513 1021.37487003 144.63129222 1021.37308243 161.85117227 1021.36875314 C179.31313568 1021.36438226 196.77509735 1021.36217971 214.23706132 1021.36265534 C215.33803323 1021.36268403 216.43900514 1021.36271273 217.57333983 1021.36274229 C223.18672994 1021.36289865 228.80012004 1021.3630906 234.41351014 1021.36329512 C275.09358043 1021.36470439 315.77364915 1021.36126565 356.45371896 1021.35527772 C396.7533953 1021.34935992 437.05307097 1021.34550356 477.35274774 1021.3444249 C478.60322977 1021.34439049 479.85371179 1021.34435608 481.14208721 1021.34432063 C492.56292546 1021.34400744 503.9837637 1021.34371974 515.40460194 1021.34346265 C543.79846815 1021.34282317 572.19233434 1021.34186379 600.58620054 1021.34068745 C601.8793483 1021.34063414 603.17249607 1021.34058082 604.50483013 1021.34052589 C645.72982271 1021.33880785 686.95481508 1021.33576605 728.17980748 1021.33167905 C728.84856759 1021.33161276 729.5173277 1021.33154647 730.20635326 1021.33147817 C750.56447861 1021.32945743 770.92260395 1021.32733906 791.28072929 1021.3252016 C813.80963414 1021.32283666 836.338539 1021.32048836 858.86744386 1021.31821221 C859.88360546 1021.31810946 859.88360546 1021.31810946 860.92029559 1021.31800464 C924.55922289 1021.31157522 988.19815025 1021.30777267 1051.83707779 1021.30467939 C1055.9549386 1021.30447909 1060.07279941 1021.30427658 1064.19066022 1021.30407365 C1107.103504 1021.30195991 1150.01634778 1021.29997322 1192.92919157 1021.29804088 C1194.15517396 1021.29798567 1195.38115635 1021.29793045 1196.64428972 1021.29787357 C1198.87500774 1021.29777318 1201.10572576 1021.29767294 1203.33644378 1021.29757291 C1411.24741273 1021.28822328 1619.15837944 1021.26806137 1827.06934816 1021.24954766 C1827.06934816 703.78954766 1827.06934816 386.32954766 1827.06934816 59.24954766 C1231.41934816 59.24954766 635.76934816 59.24954766 22.06934816 59.24954766 Z " fill="#BEDC85" transform="translate(35.93065184354782,-0.24954766035079956)"/>
</svg>
